<?xml version="1.0" standalone="no"?>
<!DOCTYPE svg PUBLIC "-//W3C//DTD SVG 20010904//EN"
 "http://www.w3.org/TR/2001/REC-SVG-20010904/DTD/svg10.dtd">
<svg version="1.0" xmlns="http://www.w3.org/2000/svg"
 width="305.000000pt" height="305.000000pt" viewBox="0 0 305.000000 305.000000"
 preserveAspectRatio="xMidYMid meet">
<metadata>
Created by potrace 1.14, written by Peter Selinger 2001-2017
</metadata>
<g transform="translate(0.000000,305.000000) scale(0.100000,-0.100000)"
fill="#000000" stroke="none">
<path d="M1762 2919 c-23 -3 -50 -14 -60 -25 -39 -42 -120 -154 -182 -250 -72
-112 -65 -107 -270 -199 -58 -26 -132 -60 -165 -75 -33 -16 -120 -56 -194 -89
-74 -34 -137 -64 -140 -67 -6 -6 29 -1 94 12 17 3 39 7 50 9 11 2 96 18 189
36 101 20 171 30 173 24 2 -6 56 -80 119 -165 64 -85 118 -161 121 -167 5 -14
33 -18 33 -5 0 4 22 30 48 58 26 28 87 97 135 153 71 82 92 100 110 96 24 -5
213 -41 262 -50 78 -14 91 -16 105 -20 8 -2 31 -7 50 -10 19 -3 55 -9 80 -14
70 -15 114 -22 109 -17 -5 4 -371 216 -439 254 -25 13 -86 49 -136 79 -84 50
-92 57 -98 91 -25 152 25 283 124 326 32 14 33 15 10 16 -14 1 -38 2 -55 3
-16 1 -49 -1 -73 -4z"/>
<path d="M1155 2189 c-16 -5 -41 -10 -55 -13 -14 -2 -101 -21 -195 -41 -93
-21 -186 -41 -205 -44 -26 -5 -45 -20 -83 -66 -189 -232 -276 -461 -275 -725
1 -622 402 -1080 1013 -1155 59 -7 289 -8 313 -1 9 3 39 8 67 11 140 18 322
87 454 173 162 106 290 252 375 425 91 189 119 323 120 572 0 179 -6 262 -23
323 -6 18 -9 33 -9 35 1 1 -7 27 -17 57 -26 79 -76 176 -128 246 l-45 61 -198
37 c-110 21 -212 41 -229 46 -16 5 -63 14 -104 21 l-74 13 -51 -56 c-28 -31
-89 -98 -136 -149 -47 -50 -101 -109 -120 -131 l-36 -38 -154 192 c-85 105
-159 197 -165 204 -7 8 -20 9 -40 3z m78 -265 c117 -77 241 -354 272 -607 8
-65 11 -67 20 -17 38 217 142 447 251 553 59 58 151 99 226 102 82 3 114 -6
189 -58 118 -80 169 -193 174 -384 2 -61 -1 -129 -5 -150 -5 -21 -11 -54 -14
-73 -3 -19 -16 -66 -29 -105 -118 -346 -412 -626 -712 -679 -165 -30 -371 27
-530 147 -65 48 -79 61 -140 128 -122 133 -229 356 -270 559 -15 73 -15 244 0
299 46 176 186 304 360 328 22 3 41 6 43 8 9 9 132 -29 165 -51z"/>
</g>
</svg>
